<svg width="165" height="28" viewBox="0 0 165 28" fill="none" xmlns="http://www.w3.org/2000/svg">
<path d="M0.879639 0.200012V26.8949H5.15811V0.200012H0.879639ZM20.8968 13.5475C20.8968 6.87374 16.5419 0.200012 8.44337 0.200012C8.44337 0.200012 16.6183 0.238146 16.6183 13.5475C16.6183 26.8568 8.44337 26.8949 8.44337 26.8949C16.5037 26.8949 20.8968 20.2212 20.8968 13.5475Z" fill="black"/>
<path d="M26.9949 4.50933V0.200012H30.9677L26.9949 4.50933ZM31.0441 7.78899H27.0713V26.8949H31.0441V7.78899Z" fill="black"/>
<path d="M48.8313 7.78899H45.2787L48.8313 11.2975V7.78899ZM37.2183 10.7636C37.2183 10.7636 36.1105 16.1407 39.3958 17.7424L44.4 19.9542C46.0427 20.6407 48.2965 22.2042 48.6021 23.4627C48.6021 23.4627 49.9009 18.1237 46.4629 16.522L41.4586 14.3102C39.5868 13.5093 37.5239 12.022 37.2183 10.7636ZM36.7599 23.3865V26.8949H40.3126L36.7599 23.3865Z" fill="black"/>
<path d="M62.853 7.78899C56.5881 7.78899 53.4175 12.5941 53.4175 17.361C53.4175 22.128 56.5499 26.8949 62.8148 26.8949C62.3946 26.8949 57.3904 26.628 57.3904 17.3992C57.3904 7.82713 62.8148 7.78899 62.853 7.78899ZM67.3225 7.78899H64.9541L67.3225 10.1153V7.78899Z" fill="black"/>
<path d="M79.1964 7.52205C73.4281 7.52205 69.608 11.3737 69.608 17.1322C69.608 23.1576 73.4281 27.2 79.1964 27.2C79.1964 27.2 73.5809 26.8949 73.5809 17.1322C73.5809 11.3737 75.8347 7.52205 79.1964 7.52205ZM80.7626 7.52205C84.1242 7.52205 86.3781 11.3737 86.3781 17.1322C86.3781 26.8949 80.7626 27.2 80.7626 27.2C86.5309 27.2 90.3509 23.1576 90.3509 17.1322C90.3509 11.3737 86.5309 7.52205 80.7626 7.52205Z" fill="black"/>
<path d="M101.115 26.8949L102.949 22.4331L96.2252 7.78899H92.2523L101.115 26.8949ZM105.164 7.78899L107.227 12.2509L109.137 7.78899H105.164Z" fill="black"/>
<path d="M120.49 7.78899C114.836 7.78899 111.054 11.6026 111.054 17.361C111.054 23.0814 114.836 26.8949 120.49 26.8949C120.452 26.8949 115.027 26.8568 115.027 17.2848C115.027 7.97967 120.146 7.78899 120.49 7.78899ZM129.2 13.6237C129.2 10.1153 126.525 7.82713 122.591 7.78899C123.164 7.78899 126.029 8.28476 126.029 13.5093C126.029 19.4203 122.438 19.4204 122.438 19.4204C126.487 19.4204 129.2 17.0941 129.2 13.6237Z" fill="black"/>
<path d="M134.173 7.78899V26.8949H138.146V7.78899H134.173ZM144.678 7.82713C143.341 7.789 142.195 8.81866 142.157 10.1915C142.119 11.5263 143.188 12.6322 144.525 12.6704C145.862 12.7085 147.009 11.6407 147.047 10.3059C147.085 8.9712 146.015 7.86527 144.678 7.82713Z" fill="black"/>
<path d="M152.005 7.78899V26.8949H155.978V7.78899H152.005ZM162.51 7.82713C161.173 7.789 160.027 8.81866 159.989 10.1915C159.951 11.5263 161.02 12.6322 162.357 12.6704C163.694 12.7085 164.84 11.6407 164.879 10.3059C164.917 8.9712 163.847 7.86527 162.51 7.82713Z" fill="black"/>
</svg>
