<svg width="242" height="47" viewBox="0 0 242 47" fill="none" xmlns="http://www.w3.org/2000/svg">
<g clip-path="url(#clip0)">
<path d="M0 32C0 36.352 1.344 40 4.032 42.88C6.72 45.76 10.048 47.232 14.08 47.232C17.408 47.232 20.288 46.208 22.784 44.096V46.4H29.632V0H22.784V19.904C20.288 17.792 17.408 16.768 14.08 16.768C10.048 16.768 6.72 18.24 4.032 21.184C1.344 24.064 0 27.712 0 32ZM20.416 26.112C21.888 27.712 22.656 29.632 22.656 32C22.656 34.368 21.888 36.352 20.416 37.952C18.944 39.552 17.088 40.32 14.912 40.32C12.736 40.32 10.88 39.552 9.408 37.952C7.936 36.352 7.168 34.368 7.168 32C7.168 29.632 7.936 27.712 9.408 26.112C10.88 24.512 12.736 23.68 14.912 23.68C17.088 23.68 18.944 24.512 20.416 26.112Z" fill="black"/>
<path d="M42.6875 46.4V17.6H35.7755V46.4H42.6875Z" fill="black"/>
<path d="M70.214 24.512C69.51 19.712 65.414 16.768 59.206 16.768C52.614 16.768 48.07 19.776 48.07 25.728C48.07 29.824 50.118 32.192 54.982 33.792L60.87 35.648C62.982 36.352 64.07 37.312 64.07 38.464C64.07 40.192 62.086 41.216 59.462 41.216C56.262 41.216 54.342 40.064 53.766 37.824L47.302 38.784C48.07 43.968 52.358 47.232 59.27 47.232C65.926 47.232 70.662 44.096 70.662 38.208C70.662 34.048 68.422 31.424 63.11 29.568L57.222 27.584C55.494 27.008 54.662 26.176 54.662 25.216C54.662 23.616 56.39 22.72 58.694 22.72C61.574 22.72 63.238 23.68 63.75 25.6L70.214 24.512Z" fill="black"/>
<path d="M103.816 26.24C101.512 20.544 96.1365 16.768 89.5445 16.768C85.1925 16.768 81.5445 18.24 78.6645 21.12C75.7845 24 74.3125 27.648 74.3125 32C74.3125 36.352 75.7845 40 78.6645 42.88C81.5445 45.76 85.1925 47.232 89.5445 47.232C96.1365 47.232 101.512 43.52 103.816 37.696L96.8405 35.648C95.6245 38.464 92.8725 40.32 89.5445 40.32C87.3045 40.32 85.3845 39.552 83.7845 37.952C82.2485 36.352 81.4805 34.368 81.4805 32C81.4805 29.632 82.2485 27.712 83.7845 26.112C85.3845 24.512 87.3045 23.68 89.5445 23.68C92.8725 23.68 95.6245 25.536 96.8405 28.352L103.816 26.24Z" fill="black"/>
<path d="M122.421 16.768C118.005 16.768 114.357 18.24 111.477 21.12C108.597 24 107.125 27.648 107.125 32C107.125 36.352 108.597 40 111.477 42.88C114.357 45.76 118.005 47.232 122.421 47.232C126.773 47.232 130.421 45.76 133.301 42.88C136.181 40 137.653 36.352 137.653 32C137.653 27.648 136.181 24 133.301 21.12C130.421 18.24 126.773 16.768 122.421 16.768ZM122.421 40.32C120.117 40.32 118.197 39.552 116.597 37.952C115.061 36.352 114.293 34.368 114.293 32C114.293 29.632 115.061 27.712 116.597 26.112C118.197 24.512 120.117 23.68 122.421 23.68C124.661 23.68 126.581 24.512 128.117 26.112C129.653 27.712 130.421 29.632 130.421 32C130.421 34.368 129.653 36.352 128.117 37.952C126.581 39.552 124.661 40.32 122.421 40.32Z" fill="black"/>
<path d="M150.746 46.4H157.274L169.114 17.6H162.01L154.01 37.632L146.01 17.6H138.842L150.746 46.4Z" fill="black"/>
<path d="M200.391 34.56C200.519 33.728 200.583 32.896 200.583 32C200.583 27.712 199.111 24.064 196.231 21.184C193.351 18.24 189.831 16.768 185.543 16.768C181.255 16.768 177.607 18.24 174.727 21.184C171.847 24.064 170.375 27.712 170.375 32C170.375 36.352 171.847 40 174.855 42.88C177.863 45.76 181.575 47.232 185.991 47.232C191.815 47.232 196.807 44.352 199.431 39.808L192.711 37.824C190.983 39.872 188.743 40.896 185.991 40.896C181.895 40.896 178.567 38.336 177.543 34.56H200.391ZM177.607 29.184C178.631 25.6 181.767 23.104 185.415 23.104C189.255 23.104 192.391 25.6 193.479 29.184H177.607Z" fill="black"/>
<path d="M212.125 17.6H205.213V46.4H212.125V30.528C212.125 26.752 215.005 23.872 218.781 23.872C219.741 23.872 220.701 24.064 221.661 24.448V16.832C221.469 16.768 221.213 16.768 220.765 16.768C217.117 16.768 214.237 18.24 212.125 21.12V17.6Z" fill="black"/>
<path d="M232.562 17.6H225.651V46.4H232.562V30.528C232.562 26.752 235.443 23.872 239.219 23.872C240.179 23.872 241.139 24.064 242.099 24.448V16.832C241.907 16.768 241.65 16.768 241.202 16.768C237.554 16.768 234.675 18.24 232.562 21.12V17.6Z" fill="black"/>
<path fill-rule="evenodd" clip-rule="evenodd" d="M39.2315 12.8C36.7355 12.8 34.8795 10.944 34.8795 8.44798C34.8795 5.88799 36.7355 4.03198 39.2315 4.03198C41.7275 4.03198 43.6475 5.88799 43.6475 8.44798C43.6475 10.944 41.7275 12.8 39.2315 12.8Z" fill="black" fill-opacity="0.5"/>
</g>
<defs>
<clipPath id="clip0">
<rect width="242" height="47" fill="white"/>
</clipPath>
</defs>
</svg>
